<svg width="64" height="55" viewBox="204 0 120 104" fill="none" xmlns="http://www.w3.org/2000/svg" role="img" aria-labelledby="elarisFaviconTitle">
  <title id="elarisFaviconTitle">Elaris</title>
  <path fill="#A7FFF0" d="M224.062 69.1875L244.035 103.781H204.09L224.062 69.1875Z"/>
  <path fill="#A7FFF0" fill-opacity="0.6" d="M244.031 34.5938L264.004 69.1875H224.059L244.031 34.5938Z"/>
  <path fill="#A7FFF0" fill-opacity="0.2" d="M264 0L283.973 34.5937H244.027L264 0Z"/>
  <path fill="#A7FFF0" fill-opacity="0.8" d="M244.031 103.781L224.059 69.1875L264.004 69.1875L244.031 103.781Z"/>
  <path fill="#A7FFF0" fill-opacity="0.4" d="M264 69.1875L244.027 34.5938L283.973 34.5938L264 69.1875Z"/>
  <path fill="#A7FFF0" fill-opacity="0.3" d="M283.969 103.781L263.996 69.1875L303.941 69.1875L283.969 103.781Z"/>
  <path fill="#A7FFF0" fill-opacity="0.7" d="M264 69.1875L283.973 103.781H244.027L264 69.1875Z"/>
  <path fill="#A7FFF0" fill-opacity="0.2" d="M283.969 34.5938L303.941 69.1875H263.996L283.969 34.5938Z"/>
  <path fill="#A7FFF0" fill-opacity="0.1" d="M303.937 69.1875L323.91 103.781H283.965L303.937 69.1875Z"/>
</svg>

