<svg width="64" height="55" viewBox="204 0 120 104" fill="none" xmlns="http://www.w3.org/2000/svg" role="img" aria-labelledby="elarisSymbolTitle elarisSymbolDesc">
  <title id="elarisSymbolTitle">Elaris</title>
  <desc id="elarisSymbolDesc">Анимированный треугольный знак Elaris.</desc>
  <style>
    .tri-node {
      --base-opacity: 1;
      fill: #ffffff;
      opacity: var(--base-opacity);
      animation: pulse_51 1500ms ease-in infinite;
      transform-origin: center;
    }
    .tri-node-1 { --base-opacity: 1; }
    .tri-node-2 { --base-opacity: 0.6; animation-delay: -250ms; }
    .tri-node-3 { --base-opacity: 0.2; }
    .tri-node-4 { --base-opacity: 0.8; animation-delay: -1250ms; }
    .tri-node-5 { --base-opacity: 0.4; animation-delay: -500ms; }
    .tri-node-6 { --base-opacity: 0.3; animation-delay: -500ms; }
    .tri-node-7 { --base-opacity: 0.7; animation-delay: -750ms; }
    .tri-node-8 { --base-opacity: 0.2; animation-delay: -1000ms; }
    .tri-node-9 { --base-opacity: 0.1; animation-delay: -1000ms; }
    @keyframes pulse_51 {
      0% { opacity: var(--base-opacity); }
      16.666% { opacity: var(--base-opacity); }
      100% { opacity: 0; }
    }
    @media (prefers-reduced-motion: reduce) {
      .tri-node { animation: none; opacity: var(--base-opacity); }
    }
  </style>
  <path class="tri-node tri-node-1" d="M224.062 69.1875L244.035 103.781H204.09L224.062 69.1875Z"/>
  <path class="tri-node tri-node-2" d="M244.031 34.5938L264.004 69.1875H224.059L244.031 34.5938Z"/>
  <path class="tri-node tri-node-3" d="M264 0L283.973 34.5937H244.027L264 0Z"/>
  <path class="tri-node tri-node-4" d="M244.031 103.781L224.059 69.1875L264.004 69.1875L244.031 103.781Z"/>
  <path class="tri-node tri-node-5" d="M264 69.1875L244.027 34.5938L283.973 34.5938L264 69.1875Z"/>
  <path class="tri-node tri-node-6" d="M283.969 103.781L263.996 69.1875L303.941 69.1875L283.969 103.781Z"/>
  <path class="tri-node tri-node-7" d="M264 69.1875L283.973 103.781H244.027L264 69.1875Z"/>
  <path class="tri-node tri-node-8" d="M283.969 34.5938L303.941 69.1875H263.996L283.969 34.5938Z"/>
  <path class="tri-node tri-node-9" d="M303.937 69.1875L323.91 103.781H283.965L303.937 69.1875Z"/>
</svg>

