<svg width="64" height="64" viewBox="0 0 64 64" fill="none" xmlns="http://www.w3.org/2000/svg" role="img" aria-label="AI Core">
  <g stroke="#EEF3FC" stroke-width="2.6" stroke-linecap="round" stroke-linejoin="round">
    <rect x="20" y="20" width="24" height="24" rx="7"/>
    <rect x="27" y="27" width="10" height="10" rx="2.5"/>
    <path d="M24 32H27"/>
    <path d="M37 32H40"/>
    <path d="M32 24V27"/>
    <path d="M32 37V40"/>
    <path d="M26 16V20"/>
    <path d="M32 15V20"/>
    <path d="M38 16V20"/>
    <path d="M26 44V48"/>
    <path d="M32 44V49"/>
    <path d="M38 44V48"/>
    <path d="M16 26H20"/>
    <path d="M15 32H20"/>
    <path d="M16 38H20"/>
    <path d="M44 26H48"/>
    <path d="M44 32H49"/>
    <path d="M44 38H48"/>
  </g>
  <circle cx="32" cy="32" r="1.8" fill="#F7FAFF"/>
</svg>
